<?xml version="1.0" encoding="UTF-8"?>
<svg width="640" height="480" xmlns="http://www.w3.org/2000/svg">
 <title>smaller Crowd_RDC_Color</title>

 <metadata id="metadata7072">image/svg+xml</metadata>
 <g>
  <path id="path4941-7" d="m394.588898,223.217438c0,-51.058807 -16.932434,-92.450226 -37.81955,-92.450226c-20.887177,0 -37.819519,41.391418 -37.819519,92.450226c0,0 0,0 0,0" stroke-dashoffset="0" stroke-miterlimit="4" fill-rule="nonzero" fill="#440c43"/>
  <path id="path4943-5" d="m450.561798,223.217407c0,-48.627457 -16.932404,-88.04776 -37.819519,-88.04776c-20.887177,0 -37.81955,39.420303 -37.81955,88.04776c0,0 0,0 0,0" stroke-dashoffset="0" stroke-miterlimit="4" fill-rule="nonzero" fill="#738973"/>
  <path id="path4945-9" d="m505.021912,223.217316c0,-51.869263 -16.932373,-93.917694 -37.81955,-93.917694c-20.887115,0 -37.819489,42.048431 -37.819489,93.917694c0,0 0,0 0,0" stroke-dashoffset="0" stroke-miterlimit="4" fill-rule="nonzero" fill="#72705c"/>
  <path id="path4947-2" d="m557.969299,234.217209c0,-53.081619 -16.932373,-96.112762 -37.819519,-96.112762c-20.887207,0 -37.81958,43.031143 -37.81958,96.112762c0,0 0,0 0,0" stroke-dashoffset="0" stroke-miterlimit="4" fill-rule="nonzero" fill="#67bde5"/>
  <path d="m610.916626,265.216766c0,-72.633713 -16.932373,-131.515137 -37.819519,-131.515137c-20.887146,0 -37.81958,58.881424 -37.81958,131.515137c0,0 0,0 0,0" id="path4949-9" stroke-dashoffset="0" stroke-miterlimit="4" fill-rule="nonzero" fill="#4f2a54"/>
  <path id="path4951-7" d="m376.435455,114.625137c0,16.209152 -11.852631,29.349243 -26.473633,29.349243c-14.621002,0 -26.473694,-13.140137 -26.473694,-29.349243c0,-16.20919 11.852692,-29.349258 26.473694,-29.349258c11.982086,0 22.470367,8.922089 25.571564,21.753128" stroke-dashoffset="0" stroke-miterlimit="4" fill-rule="nonzero" fill="#ddb694"/>
  <path id="path4953-2" d="m430.895599,119.76123c0,14.183014 -10.159393,25.680618 -22.691711,25.680618c-12.532257,0 -22.691742,-11.497635 -22.691742,-25.680618c0,-14.182999 10.159485,-25.680573 22.691742,-25.680573c10.270447,0 19.260376,7.806824 21.918579,19.033989" stroke-dashoffset="0" stroke-miterlimit="4" fill-rule="nonzero" fill="#f2cfb0"/>
  <path id="path4955-6" d="m494.650818,113.216553c-4.239258,15.259567 -17.485229,25.065536 -29.585846,21.902283c-12.100647,-3.163239 -18.473541,-18.097862 -14.234344,-33.357399c4.239227,-15.25956 17.485229,-25.065514 29.585876,-21.902275c9.916626,2.592316 16.263489,13.260872 15.474365,26.011139" stroke-dashoffset="0" stroke-miterlimit="4" fill-rule="nonzero" fill="#f2cfb0"/>
  <path id="path4957-6" d="m554.714111,118.105667c2.311523,15.644058 -5.871277,29.724274 -18.276794,31.449097c-12.405457,1.724808 -24.335999,-9.558975 -26.647522,-25.203003c-2.311462,-15.644058 5.871338,-29.724289 18.276855,-31.449104c10.166504,-1.41349 20.337891,5.960266 24.79895,17.978127" stroke-dashoffset="0" stroke-miterlimit="4" fill-rule="nonzero" fill="#e0a674"/>
  <path d="m605.386169,125.927757c-7.476563,14.041542 -22.563843,20.901878 -33.698669,15.323021c-11.134766,-5.578873 -14.100281,-21.484375 -6.62384,-35.525879c7.476501,-14.04155 22.563904,-20.901901 33.698608,-15.323006c9.125122,4.571938 12.997192,16.302879 9.440613,28.601357" id="path4961-0" stroke-dashoffset="0" stroke-miterlimit="4" fill-rule="nonzero" fill="#b25d0e"/>
  <path d="m271.816101,235.681213c0,-62.368652 17.676514,-112.928535 39.481567,-112.928535c21.805115,0 39.481628,50.559883 39.481628,112.928535c0,0 0,0 0,0" id="path5013-7" stroke-dashoffset="0" stroke-miterlimit="4" fill-rule="nonzero" fill="#002154"/>
  <path d="m213.383301,219.680939c0,-50.982758 17.676544,-92.312408 39.481598,-92.312408c21.805115,0 39.481598,41.329651 39.481598,92.312408c0,0 0,0 0,0" id="path5015-3" stroke-dashoffset="0" stroke-miterlimit="4" fill-rule="nonzero" fill="#fff5aa"/>
  <path d="m156.529816,219.680847c0,-54.381577 17.676514,-98.46666 39.481598,-98.46666c21.805084,0 39.481598,44.085083 39.481598,98.46666c0,0 0,0 0,0" id="path5017-1" stroke-dashoffset="0" stroke-miterlimit="4" fill-rule="nonzero" fill="#174c41"/>
  <path d="m101.255547,219.680908c0,-49.28331 17.676582,-89.235306 39.481636,-89.235306c21.805054,0 39.481567,39.951996 39.481567,89.235306c0,0 0,0 0,0" id="path5019-5" stroke-dashoffset="0" stroke-miterlimit="4" fill-rule="nonzero" fill="#6d0000"/>
  <path id="path5021-9" d="m45.981319,227.681046c0,-56.250687 17.676521,-101.850983 39.481632,-101.850983c21.805061,0 39.481567,45.600296 39.481567,101.850983c0,0 0,0 0,0" stroke-dashoffset="0" stroke-miterlimit="4" fill-rule="nonzero" fill="#a9b5c9"/>
  <path d="m290.767273,105.828918c0,16.994278 12.373535,30.770813 27.637146,30.770813c15.26355,0 27.637085,-13.776581 27.637085,-30.770813c0,-16.994247 -12.373535,-30.770798 -27.637085,-30.770798c-12.508728,0 -23.457947,9.354248 -26.695435,22.806747" id="path5023-3" stroke-dashoffset="0" stroke-miterlimit="4" fill-rule="nonzero" fill="#47301c"/>
  <path d="m233.913757,111.213814c0,14.869987 10.605896,26.924446 23.688965,26.924446c13.083038,0 23.688934,-12.054489 23.688934,-26.924446c0,-14.869987 -10.605896,-26.924461 -23.688934,-26.924461c-10.721771,0 -20.106781,8.184967 -22.881775,19.955917" id="path5025-5" stroke-dashoffset="0" stroke-miterlimit="4" fill-rule="nonzero" fill="#cc813b"/>
  <path d="m168.400665,106.449013c4.425507,15.99865 18.253662,26.279579 30.886078,22.963097c12.632385,-3.316437 19.28537,-18.974442 14.859863,-34.973068c-4.425507,-15.998672 -18.253662,-26.279594 -30.886047,-22.96312c-10.352448,2.71788 -16.978241,13.903137 -16.154449,27.270981" id="path5027-0" stroke-dashoffset="0" stroke-miterlimit="4" fill-rule="nonzero" fill="#a35b18"/>
  <path d="m104.653748,109.478043c-2.413086,16.401779 6.129333,31.163986 19.080009,32.972351c12.950691,1.80835 25.405556,-10.021973 27.818611,-26.423721c2.413086,-16.401794 -6.129333,-31.164001 -19.080017,-32.972351c-10.613342,-1.481979 -21.231628,6.248947 -25.888794,18.848892" id="path5029-7" stroke-dashoffset="0" stroke-miterlimit="4" fill-rule="nonzero" fill="#cc813b"/>
  <path d="m45.981319,108.136726c0,16.56942 10.6059,30.001549 23.688969,30.001549c13.083015,0 23.688965,-13.432175 23.688965,-30.001549c0,-16.569405 -10.605949,-30.001534 -23.688965,-30.001534c-10.721737,0 -20.106808,9.120384 -22.881779,22.236588" id="path5031-9" stroke-dashoffset="0" stroke-miterlimit="4" fill-rule="nonzero" fill="#ffd4aa"/>
  <path id="path5033-2" d="m48.623051,118.727432c7.80505,14.721664 23.555477,21.914276 35.179562,16.065201c11.624146,-5.849091 14.720024,-22.524994 6.914917,-37.246582c-7.805046,-14.72168 -23.555481,-21.914314 -35.179569,-16.065224c-9.526119,4.793419 -13.568359,17.092529 -9.855461,29.986702" stroke-dashoffset="0" stroke-miterlimit="4" fill-rule="nonzero" fill="#ffd4aa"/>
  <path d="m479.236145,302.681183c0,-60.711777 17.676514,-109.928467 39.481567,-109.928467c21.805115,0 39.481628,49.21669 39.481628,109.928467c0,0 0,0 0,0" id="path5037-8" stroke-dashoffset="0" stroke-miterlimit="4" fill-rule="nonzero" fill="#a9b5c9"/>
  <path d="m420.803345,321.681396c0,-68.655701 17.676514,-124.312057 39.481628,-124.312057c21.805054,0 39.481567,55.656357 39.481567,124.312057c0,0 0,0 0,0" id="path5039-4" stroke-dashoffset="0" stroke-miterlimit="4" fill-rule="nonzero" fill="#002154"/>
  <path d="m363.949829,289.680847c0,-54.381577 17.676575,-98.46666 39.481628,-98.46666c21.805054,0 39.481567,44.085083 39.481567,98.46666c0,0 0,0 0,0" id="path5041-6" stroke-dashoffset="0" stroke-miterlimit="4" fill-rule="nonzero" fill="#6d0000"/>
  <path d="m308.675598,289.680908c0,-49.28331 17.676514,-89.235306 39.481628,-89.235306c21.805054,0 39.481567,39.951996 39.481567,89.235306c0,0 0,0 0,0" id="path5043-3" stroke-dashoffset="0" stroke-miterlimit="4" fill-rule="nonzero" fill="#ff7700"/>
  <path id="path5045-9" d="m291.401367,300.680939c0,-51.832443 17.676514,-93.851028 39.481628,-93.851028c21.805054,0 39.481567,42.018585 39.481567,93.851028c0,0 0,0 0,0" stroke-dashoffset="0" stroke-miterlimit="4" fill-rule="nonzero" fill="#ff7700"/>
  <path d="m498.187317,175.828918c0,16.994278 12.373535,30.770813 27.637146,30.770813c15.26355,0 27.637085,-13.776581 27.637085,-30.770813c0,-16.994247 -12.373535,-30.770798 -27.637085,-30.770798c-12.508728,0 -23.457947,9.354248 -26.695435,22.806747" id="path5047-5" stroke-dashoffset="0" stroke-miterlimit="4" fill-rule="nonzero" fill="#f2efcb"/>
  <path d="m441.333801,181.213806c0,14.869995 10.605896,26.924454 23.688965,26.924454c13.083069,0 23.688965,-12.054489 23.688965,-26.924454c0,-14.86998 -10.605896,-26.924454 -23.688965,-26.924454c-10.721741,0 -20.10675,8.184967 -22.881775,19.955917" id="path5049-7" stroke-dashoffset="0" stroke-miterlimit="4" fill-rule="nonzero" fill="#bc9673"/>
  <path d="m375.82074,176.449005c4.425476,15.998657 18.253601,26.279587 30.886047,22.963104c12.632385,-3.316437 19.2854,-18.974442 14.859863,-34.973068c-4.425476,-15.998672 -18.253662,-26.279587 -30.886047,-22.96312c-10.352417,2.71788 -16.97821,13.903137 -16.154419,27.270981" id="path5051-4" stroke-dashoffset="0" stroke-miterlimit="4" fill-rule="nonzero" fill="#fce0c7"/>
  <path d="m312.073792,179.478043c-2.413086,16.401779 6.129333,31.163986 19.080017,32.972351c12.950745,1.80835 25.405518,-10.021973 27.818604,-26.423721c2.413086,-16.401794 -6.129333,-31.164001 -19.080017,-32.972351c-10.613281,-1.481979 -21.231628,6.248947 -25.888733,18.848892" id="path5053-6" stroke-dashoffset="0" stroke-miterlimit="4" fill-rule="nonzero" fill="#cc813b"/>
  <path d="m253.401367,178.136734c0,16.569412 10.605896,30.001541 23.688965,30.001541c13.083069,0 23.688965,-13.432175 23.688965,-30.001541c0,-16.569412 -10.605896,-30.001541 -23.688965,-30.001541c-10.721741,0 -20.10675,9.120392 -22.881775,22.236588" id="path5055-8" stroke-dashoffset="0" stroke-miterlimit="4" fill-rule="nonzero" fill="#bc9673"/>
  <path id="path5057-8" d="m256.043091,188.727432c7.805054,14.721664 23.555481,21.914276 35.179565,16.065201c11.624084,-5.849091 14.720032,-22.524994 6.914978,-37.246582c-7.805115,-14.72168 -23.555481,-21.914307 -35.179626,-16.065216c-9.526123,4.793411 -13.568359,17.092529 -9.855469,29.986694" stroke-dashoffset="0" stroke-miterlimit="4" fill-rule="nonzero" fill="#bc9673"/>
  <path d="m77.054367,323.297974c0,-76.728394 -17.423267,-138.929153 -38.915997,-138.929153c-21.492741,0 -38.915961,62.20076 -38.915961,138.929153c0,0 0,0 0,0" id="path5135-5" stroke-dashoffset="0" stroke-miterlimit="4" fill-rule="nonzero" fill="#148972"/>
  <path d="m135.650085,290.297638c0,-55.953278 -17.423279,-101.312378 -38.916016,-101.312378c-21.492737,0 -38.916019,45.3591 -38.916019,101.312378c0,0 0,0 0,0" id="path5137-8" stroke-dashoffset="0" stroke-miterlimit="4" fill-rule="nonzero" fill="#fff5aa"/>
  <path d="m191.689148,281.297516c0,-54.381592 -17.423325,-98.46669 -38.916016,-98.46669c-21.492737,0 -38.916016,44.085098 -38.916016,98.46669c0,0 0,0 0,0" id="path5139-9" stroke-dashoffset="0" stroke-miterlimit="4" fill-rule="nonzero" fill="#738973"/>
  <path stroke="#444444" d="m246.171509,281.297577c0,-49.283325 -17.423218,-89.235321 -38.91597,-89.235321c-21.492722,0 -38.916,39.951996 -38.916,89.235321c0,0 0,0 0,0" id="path5141-7" stroke-dashoffset="0" stroke-miterlimit="4" fill-rule="nonzero" fill="#434144"/>
  <path id="path5143-2" d="m314.653961,293.297607c0,-51.832458 -17.423309,-93.851059 -38.915985,-93.851059c-21.492737,0 -38.916016,42.0186 -38.916016,93.851059c0,0 0,0 0,0" stroke-dashoffset="0" stroke-miterlimit="4" fill-rule="nonzero" fill="#a9b5c9"/>
  <path d="m59.374691,167.445572c0,16.994263 -12.196281,30.770798 -27.241211,30.770798c-15.044861,0 -27.24121,-13.776581 -27.24121,-30.770798c0,-16.994263 12.196349,-30.770813 27.24121,-30.770813c12.329529,0 23.121891,9.354248 26.312988,22.806763" id="path5145-6" stroke-dashoffset="0" stroke-miterlimit="4" fill-rule="nonzero" fill="#f2cfb0"/>
  <path d="m115.413757,172.83046c0,14.86998 -10.453979,26.924454 -23.349609,26.924454c-12.89563,0 -23.349609,-12.054504 -23.349609,-26.924454c0,-14.86998 10.453979,-26.924454 23.349609,-26.924454c10.568169,0 19.818726,8.184967 22.554008,19.955917" id="path5147-9" stroke-dashoffset="0" stroke-miterlimit="4" fill-rule="nonzero" fill="#cc813b"/>
  <path d="m179.988342,168.065643c-4.362122,15.998672 -17.992188,26.279602 -30.443604,22.963135c-12.451416,-3.316452 -19.009094,-18.974457 -14.647034,-34.973083c4.362122,-15.998657 17.992188,-26.279587 30.443604,-22.96312c10.204163,2.717896 16.734985,13.903137 15.923035,27.270981" id="path5149-1" stroke-dashoffset="0" stroke-miterlimit="4" fill-rule="nonzero" fill="#f2cfb0"/>
  <path d="m242.822021,171.094681c2.37854,16.401794 -6.041504,31.163986 -18.806641,32.972366c-12.765259,1.80835 -25.04155,-10.021973 -27.420181,-26.423721c-2.378464,-16.401794 6.04158,-31.164017 18.806778,-32.972366c10.461243,-1.481964 20.927429,6.248947 25.517822,18.848907" id="path5151-2" stroke-dashoffset="0" stroke-miterlimit="4" fill-rule="nonzero" fill="#ffd4aa"/>
  <path id="path5255-2" d="m267.00354,316.610107c0,-53.531891 -17.423279,-96.928131 -38.915985,-96.928131c-21.492706,0 -38.916046,43.39624 -38.916046,96.928131c0,0 0,0 0,0" stroke-dashoffset="0" stroke-miterlimit="4" fill-rule="nonzero" fill="#d35d5d"/>
  <path id="path5257-3" d="m324.599243,316.610046c0,-50.982727 -17.423309,-92.312378 -38.916016,-92.312378c-21.492706,0 -38.915985,41.329651 -38.915985,92.312378c0,0 0,0 0,0" stroke-dashoffset="0" stroke-miterlimit="4" fill-rule="nonzero" fill="#5f7561"/>
  <path id="path5259-5" d="m380.638306,316.609985c0,-54.381592 -17.423279,-98.466675 -38.916016,-98.466675c-21.492706,0 -38.915985,44.085083 -38.915985,98.466675c0,0 0,0 0,0" stroke-dashoffset="0" stroke-miterlimit="4" fill-rule="nonzero" fill="#87b500"/>
  <path id="path5261-4" d="m435.120728,316.610046c0,-49.283325 -17.42334,-89.235321 -38.916016,-89.235321c-21.492737,0 -38.916016,39.951996 -38.916016,89.235321c0,0 0,0 0,0" stroke-dashoffset="0" stroke-miterlimit="4" fill-rule="nonzero" fill="#312dff"/>
  <path d="m489.603088,316.610077c0,-51.832458 -17.423279,-93.851044 -38.915955,-93.851044c-21.492737,0 -38.916016,42.018585 -38.916016,93.851044c0,0 0,0 0,0" id="path5263-9" stroke-dashoffset="0" stroke-miterlimit="4" fill-rule="nonzero" fill="#4c0327"/>
  <path id="path5265-0" d="m248.323853,202.758057c0,16.994263 -12.196289,30.770782 -27.241211,30.770782c-15.044922,0 -27.241211,-13.776581 -27.241211,-30.770782c0,-16.994293 12.196289,-30.770813 27.241211,-30.770813c12.329529,0 23.121857,9.354248 26.312988,22.806763" stroke-dashoffset="0" stroke-miterlimit="4" fill-rule="nonzero" fill="#f2ad6d"/>
  <path id="path5267-0" d="m304.362915,208.142944c0,14.869965 -10.453979,26.924438 -23.349609,26.924438c-12.89563,0 -23.349609,-12.054504 -23.349609,-26.924438c0,-14.869995 10.453979,-26.924469 23.349609,-26.924469c10.568176,0 19.818756,8.184967 22.553986,19.955902" stroke-dashoffset="0" stroke-miterlimit="4" fill-rule="nonzero" fill="#f2cfb0"/>
  <path id="path5269-0" d="m368.9375,203.378113c-4.362122,15.998657 -17.992157,26.279602 -30.443604,22.963135c-12.451447,-3.316467 -19.009125,-18.974457 -14.647034,-34.973083c4.362122,-15.998657 17.992188,-26.279572 30.443634,-22.963135c10.204132,2.717896 16.735016,13.903168 15.923004,27.270996" stroke-dashoffset="0" stroke-miterlimit="4" fill-rule="nonzero" fill="#f2cfb0"/>
  <path id="path5271-6" d="m431.77124,206.407166c2.378479,16.401794 -6.041565,31.164001 -18.806763,32.972351c-12.765137,1.80835 -25.041565,-10.021973 -27.420044,-26.423737c-2.37854,-16.401794 6.041504,-31.164001 18.806702,-32.972351c10.461243,-1.481964 20.92749,6.248962 25.517883,18.848907" stroke-dashoffset="0" stroke-miterlimit="4" fill-rule="nonzero" fill="#f2cfb0"/>
  <path d="m482.999268,216.656555c-7.693298,14.721649 -23.218079,21.914276 -34.675598,16.065186c-11.457581,-5.84906 -14.509155,-22.524963 -6.815918,-37.246582c7.693237,-14.721649 23.218018,-21.914276 34.675598,-16.065216c9.389648,4.793427 13.374023,17.092529 9.714294,29.986694" id="path5275-6" stroke-dashoffset="0" stroke-miterlimit="4" fill-rule="nonzero" fill="#b25d0e"/>
  <path id="path5283-1" d="m581.267151,330.148529c0,-54.381592 -17.423279,-98.466675 -38.916016,-98.466675c-21.492737,0 -38.916016,44.085083 -38.916016,98.466675c0,0 0,0 0,0" stroke-dashoffset="0" stroke-miterlimit="4" fill-rule="nonzero" fill="#174c41"/>
  <path id="path5285-6" d="m637.749573,348.14859c0,-59.224518 -17.871094,-107.235474 -39.916016,-107.235474c-22.045044,0 -39.916016,48.010956 -39.916016,107.235474c0,0 0,0 0,0" stroke-dashoffset="0" stroke-miterlimit="4" fill-rule="nonzero" fill="#a9b5c9"/>
  <path id="path5293-0" d="m569.566345,216.916656c-4.362122,15.998657 -17.992188,26.279602 -30.443604,22.963135c-12.451416,-3.316467 -19.009094,-18.974457 -14.647034,-34.973083c4.362122,-15.998657 17.992188,-26.279602 30.443665,-22.963135c10.204102,2.717896 16.734985,13.903168 15.922974,27.270996" stroke-dashoffset="0" stroke-miterlimit="4" fill-rule="nonzero" fill="#ddb694"/>
  <path id="path5295-6" d="m632.400085,219.945709c2.378479,16.401794 -6.041565,31.164001 -18.806763,32.972351c-12.765137,1.80835 -25.041565,-10.021973 -27.420044,-26.423737c-2.37854,-16.401794 6.041504,-31.164001 18.806702,-32.972351c10.461243,-1.481964 20.92749,6.248962 25.517883,18.848907" stroke-dashoffset="0" stroke-miterlimit="4" fill-rule="nonzero" fill="#cc813b"/>
  <path id="path5327-2" d="m98.552681,347.686157c0,-53.531891 24.810585,-96.928131 55.416023,-96.928131c30.605362,0 55.415985,43.39624 55.415985,96.928131c0,0 0,0 0,0" stroke-dashoffset="0" stroke-miterlimit="4" fill-rule="nonzero" fill="#2d3e4f"/>
  <path id="path5329-6" d="m40.956421,347.686096c0,-50.982727 17.42334,-92.312378 38.916016,-92.312378c21.492676,0 38.915955,41.329651 38.915955,92.312378c0,0 0,0 0,0" stroke-dashoffset="0" stroke-miterlimit="4" fill-rule="nonzero" fill="#331e30"/>
  <path id="path5331-6" d="m-2.082603,372.685638c0,-68.740662 16.304049,-124.466125 36.416011,-124.466125c20.11203,0 36.416019,55.725464 36.416019,124.466125c0,0 0,0 0,0" stroke-dashoffset="0" stroke-miterlimit="4" fill-rule="nonzero" fill="#ea0000"/>
  <path id="path5337-2" d="m117.231812,233.834106c0,16.994263 12.196289,30.770782 27.241211,30.770782c15.044922,0 27.241211,-13.776581 27.241211,-30.770782c0,-16.994293 -12.196289,-30.770813 -27.241211,-30.770813c-12.329529,0 -23.12188,9.354248 -26.312996,22.806763" stroke-dashoffset="0" stroke-miterlimit="4" fill-rule="nonzero" fill="#efd5bd"/>
  <path id="path5339-8" d="m61.192749,239.218994c0,14.869965 10.453979,26.924438 23.349609,26.924438c12.89563,0 23.349609,-12.054504 23.349609,-26.924438c0,-14.869995 -10.453979,-26.924469 -23.349609,-26.924469c-10.568176,0 -19.818726,8.184967 -22.55402,19.955902" stroke-dashoffset="0" stroke-miterlimit="4" fill-rule="nonzero" fill="#fffbdb"/>
  <path id="path5341-9" d="m13.61816,241.454163c4.362129,15.998657 17.992189,26.279602 30.443611,22.963135c12.451408,-3.316467 19.00909,-18.974457 14.646969,-34.973083c-4.362061,-15.998657 -17.99213,-26.279587 -30.443541,-22.963135c-10.204159,2.717896 -16.735049,13.903168 -15.923039,27.270996" stroke-dashoffset="0" stroke-miterlimit="4" fill-rule="nonzero" fill="#ffd59e"/>
  <path d="m558.120178,431.562836c0,-75.921082 18.542542,-137.467407 41.415955,-137.467407c22.873474,0 41.416016,61.546326 41.416016,137.467407c0,0 0,0 0,0" id="path5379-9" stroke-dashoffset="0" stroke-miterlimit="4" fill-rule="nonzero" fill="#002154"/>
  <path d="m503.637817,392.562805c0,-49.283295 17.423279,-89.235291 38.916016,-89.235291c21.492676,0 38.915955,39.951996 38.915955,89.235291c0,0 0,0 0,0" id="path5381-2" stroke-dashoffset="0" stroke-miterlimit="4" fill-rule="nonzero" fill="#808080"/>
  <path id="path5383-0" d="m499.155396,391.562897c0,-55.698425 17.423279,-100.851044 38.916016,-100.851044c21.492737,0 38.916016,45.152618 38.916016,100.851044c0,0 0,0 0,0" stroke-dashoffset="0" stroke-miterlimit="4" fill-rule="nonzero" fill="#ff7700"/>
  <path d="m569.821045,279.330902c4.362061,15.998657 17.992126,26.279602 30.443604,22.963135c12.451416,-3.316467 19.009094,-18.974457 14.646973,-34.973083c-4.362122,-15.998657 -17.992188,-26.279602 -30.443604,-22.963135c-10.204102,2.717896 -16.734985,13.903137 -15.923035,27.270996" id="path5389-3" stroke-dashoffset="0" stroke-miterlimit="4" fill-rule="nonzero" fill="#ddb694"/>
  <path d="m512.987305,275.359924c-2.37854,16.401794 6.041504,31.164001 18.806702,32.972351c12.765198,1.80838 25.041565,-10.021973 27.420105,-26.423706c2.378479,-16.401794 -6.041565,-31.164001 -18.806702,-32.972351c-10.461304,-1.481964 -20.92749,6.248932 -25.517883,18.848907" id="path5391-5" stroke-dashoffset="0" stroke-miterlimit="4" fill-rule="nonzero" fill="#b25d0e"/>
  <path id="path4409-2" d="m297.379333,377.384033c0,-53.531891 -15.144257,-96.928131 -33.825623,-96.928131c-18.681396,0 -33.825653,43.39624 -33.825653,96.928131c0,0 0,0 0,0" stroke-dashoffset="0" stroke-miterlimit="4" fill-rule="nonzero" fill="#a9b5c9"/>
  <path id="path4411-3" d="m347.441284,377.383972c0,-50.982727 -15.144226,-92.312378 -33.825623,-92.312378c-18.681396,0 -33.825653,41.329651 -33.825653,92.312378c0,0 0,0 0,0" stroke-dashoffset="0" stroke-miterlimit="4" fill-rule="nonzero" fill="#72705c"/>
  <path id="path4413-9" d="m396.150269,377.383911c0,-54.381592 -15.144287,-98.466675 -33.825684,-98.466675c-18.681396,0 -33.825623,44.085083 -33.825623,98.466675c0,0 0,0 0,0" stroke-dashoffset="0" stroke-miterlimit="4" fill-rule="nonzero" fill="#4f2a54"/>
  <path id="path4415-1" d="m443.506165,377.383972c0,-49.283325 -15.144287,-89.235321 -33.825623,-89.235321c-18.681396,0 -33.825684,39.951996 -33.825684,89.235321c0,0 0,0 0,0" stroke-dashoffset="0" stroke-miterlimit="4" fill-rule="nonzero" fill="#fff5aa"/>
  <path d="m490.862061,377.384003c0,-51.832458 -15.144287,-93.851044 -33.825623,-93.851044c-18.681396,0 -33.825684,42.018585 -33.825684,93.851044c0,0 0,0 0,0" id="path4417-8" stroke-dashoffset="0" stroke-miterlimit="4" fill-rule="nonzero" fill="#000000"/>
  <path id="path4419-2" d="m281.143036,263.531982c0,16.994263 -10.600983,30.770782 -23.677979,30.770782c-13.076965,0 -23.677948,-13.776581 -23.677948,-30.770782c0,-16.994293 10.600983,-30.770813 23.677948,-30.770813c10.716766,0 20.097443,9.354248 22.871155,22.806763" stroke-dashoffset="0" stroke-miterlimit="4" fill-rule="nonzero" fill="#bc9673"/>
  <path id="path4421-8" d="m329.85199,268.91687c0,14.869965 -9.086548,26.924438 -20.29541,26.924438c-11.208862,0 -20.29541,-12.054504 -20.29541,-26.924438c0,-14.869995 9.086548,-26.924469 20.29541,-26.924469c9.185791,0 17.226379,8.184967 19.603821,19.955933" stroke-dashoffset="0" stroke-miterlimit="4" fill-rule="nonzero" fill="#fce0c7"/>
  <path id="path4423-5" d="m385.97998,264.152039c-3.791565,15.998688 -15.638733,26.279602 -26.461487,22.963135c-10.822754,-3.316437 -16.522644,-18.974457 -12.73114,-34.973083c3.791565,-15.998657 15.638733,-26.279572 26.461487,-22.963135c8.869385,2.717896 14.546021,13.903168 13.84021,27.270996" stroke-dashoffset="0" stroke-miterlimit="4" fill-rule="nonzero" fill="#a35b18"/>
  <path id="path4425-0" d="m440.594788,267.181091c2.067383,16.401794 -5.251282,31.164001 -16.346741,32.972351c-11.095459,1.80835 -21.766052,-10.021973 -23.833435,-26.423706c-2.067383,-16.401794 5.251282,-31.164001 16.346741,-32.972382c9.092896,-1.481964 18.190063,6.248962 22.180054,18.848907" stroke-dashoffset="0" stroke-miterlimit="4" fill-rule="nonzero" fill="#47301c"/>
  <path d="m491.598816,279.430481c-6.686951,14.721649 -20.18103,21.914276 -30.139954,16.065186c-9.958862,-5.84906 -12.611267,-22.524963 -5.924316,-37.246582c6.686951,-14.72168 20.18103,-21.914276 30.139893,-16.065186c8.161438,4.793396 11.624634,17.092529 8.443665,29.986664" id="path4429-9" stroke-dashoffset="0" stroke-miterlimit="4" fill-rule="nonzero" fill="#f2cfb0"/>
  <path id="path4433-6" d="m72.127083,448.998108c0,-72.861511 -15.591934,-131.927521 -34.825611,-131.927521c-19.233667,0 -34.825666,59.06601 -34.825666,131.927521c0,0 0,0 0,0" stroke-dashoffset="0" stroke-miterlimit="4" fill-rule="nonzero" fill="#088985"/>
  <path id="path4435-9" d="m122.189087,413.998566c0,-50.982727 -15.144226,-92.312378 -33.82563,-92.312378c-18.681389,0 -33.825615,41.329651 -33.825615,92.312378c0,0 0,0 0,0" stroke-dashoffset="0" stroke-miterlimit="4" fill-rule="nonzero" fill="#577a1c"/>
  <path id="path4437-6" d="m170.898071,413.998505c0,-54.381592 -15.144287,-98.466675 -33.825684,-98.466675c-18.681335,0 -33.825615,44.085083 -33.825615,98.466675c0,0 0,0 0,0" stroke-dashoffset="0" stroke-miterlimit="4" fill-rule="nonzero" fill="#b3b3b3"/>
  <path id="path4439-3" d="m218.253967,413.998566c0,-49.283325 -15.144257,-89.235321 -33.825623,-89.235321c-18.681396,0 -33.825684,39.951996 -33.825684,89.235321c0,0 0,0 0,0" stroke-dashoffset="0" stroke-miterlimit="4" fill-rule="nonzero" fill="#b3b3b3"/>
  <path d="m265.609894,413.998596c0,-51.832458 -15.144287,-93.851044 -33.825653,-93.851044c-18.681396,0 -33.825653,42.018585 -33.825653,93.851044c0,0 0,0 0,0" id="path4441-4" stroke-dashoffset="0" stroke-miterlimit="4" fill-rule="nonzero" fill="#b3b3b3"/>
  <path id="path4443-9" d="m55.890869,300.146576c0,16.994263 -10.601009,30.770782 -23.677979,30.770782c-13.07703,0 -23.67798,-13.776581 -23.67798,-30.770782c0,-16.994293 10.60095,-30.770813 23.67798,-30.770813c10.71674,0 20.097408,9.354248 22.871159,22.806763" stroke-dashoffset="0" stroke-miterlimit="4" fill-rule="nonzero" fill="#cc813b"/>
  <path id="path4445-3" d="m104.599731,305.531464c0,14.869965 -9.086548,26.924438 -20.295349,26.924438c-11.208862,0 -20.29541,-12.054504 -20.29541,-26.924438c0,-14.869995 9.086548,-26.924469 20.29541,-26.924469c9.185791,0 17.226379,8.184967 19.603821,19.955902" stroke-dashoffset="0" stroke-miterlimit="4" fill-rule="nonzero" fill="#f2cfb0"/>
  <path id="path4447-5" d="m160.727783,300.766632c-3.791504,15.998657 -15.638733,26.279602 -26.461487,22.963135c-10.822693,-3.316467 -16.522644,-18.974457 -12.73114,-34.973083c3.791504,-15.998657 15.638794,-26.279572 26.461487,-22.963135c8.869385,2.717896 14.546021,13.903168 13.840271,27.270996" stroke-dashoffset="0" stroke-miterlimit="4" fill-rule="nonzero" fill="#e0a674"/>
  <path id="path4449-3" d="m215.34259,303.795685c2.067413,16.401794 -5.251251,31.164001 -16.34671,32.972351c-11.095459,1.80835 -21.766022,-10.021973 -23.833466,-26.423737c-2.067383,-16.401794 5.251343,-31.164001 16.346741,-32.972351c9.092896,-1.481964 18.190094,6.248962 22.180054,18.848907" stroke-dashoffset="0" stroke-miterlimit="4" fill-rule="nonzero" fill="#47301c"/>
  <path d="m259.346619,315.045074c-6.686951,14.721649 -20.18103,21.914276 -30.139923,16.065186c-9.958862,-5.84906 -12.611298,-22.524963 -5.924377,-37.246582c6.686981,-14.72168 20.181061,-21.914276 30.139954,-16.065216c8.161438,4.793427 11.624634,17.092529 8.443634,29.986694" id="path4453-6" stroke-dashoffset="0" stroke-miterlimit="4" fill-rule="nonzero" fill="#f2cfb0"/>
  <path id="path4361-7" d="m382.864197,430.583435c0,-53.53186 -15.144287,-96.928101 -33.825653,-96.928101c-18.681396,0 -33.825653,43.39624 -33.825653,96.928101c0,0 0,0 0,0" stroke-dashoffset="0" stroke-miterlimit="4" fill-rule="nonzero" fill="#088985"/>
  <path id="path4363-9" d="m432.926147,430.583374c0,-50.982727 -15.144287,-92.312378 -33.825684,-92.312378c-18.681335,0 -33.825623,41.329651 -33.825623,92.312378c0,0 0,0 0,0" stroke-dashoffset="0" stroke-miterlimit="4" fill-rule="nonzero" fill="#333333"/>
  <path id="path4365-2" d="m481.635071,430.583313c0,-54.381592 -15.144226,-98.466675 -33.825623,-98.466675c-18.681396,0 -33.825684,44.085083 -33.825684,98.466675c0,0 0,0 0,0" stroke-dashoffset="0" stroke-miterlimit="4" fill-rule="nonzero" fill="#333333"/>
  <path id="path4367-7" d="m528.990967,430.583374c0,-49.283325 -15.144226,-89.235291 -33.825623,-89.235291c-18.681396,0 -33.825623,39.951965 -33.825623,89.235291c0,0 0,0 0,0" stroke-dashoffset="0" stroke-miterlimit="4" fill-rule="nonzero" fill="#333333"/>
  <path d="m576.346924,430.583435c0,-51.832458 -15.144287,-93.851074 -33.825684,-93.851074c-18.681396,0 -33.825623,42.018616 -33.825623,93.851074c0,0 0,0 0,0" id="path4369-8" stroke-dashoffset="0" stroke-miterlimit="4" fill-rule="nonzero" fill="#333333"/>
  <path id="path4371-1" d="m370.627869,313.731384c0,16.994263 -10.601013,30.770813 -23.677979,30.770813c-13.076965,0 -23.677948,-13.776581 -23.677948,-30.770813c0,-16.994263 10.600983,-30.770813 23.677948,-30.770813c10.716797,0 20.097473,9.354248 22.871155,22.806763" stroke-dashoffset="0" stroke-miterlimit="4" fill-rule="nonzero" fill="#cc813b"/>
  <path id="path4373-0" d="m415.336792,322.116272c0,14.869995 -9.086548,26.924469 -20.29541,26.924469c-11.208801,0 -20.295349,-12.054504 -20.295349,-26.924469c0,-14.869965 9.086548,-26.924438 20.295349,-26.924438c9.185852,0 17.226379,8.184967 19.603882,19.955902" stroke-dashoffset="0" stroke-miterlimit="4" fill-rule="nonzero" fill="#e0a674"/>
  <path id="path4375-7" d="m471.464783,317.351471c-3.791504,15.998657 -15.638733,26.279602 -26.461487,22.963135c-10.822693,-3.316467 -16.522644,-18.974457 -12.73114,-34.973083c3.791565,-15.998657 15.638794,-26.279602 26.461487,-22.963135c8.869385,2.717896 14.546021,13.903137 13.840271,27.270996" stroke-dashoffset="0" stroke-miterlimit="4" fill-rule="nonzero" fill="#cc813b"/>
  <path id="path4377-1" d="m526.079651,320.380493c2.067383,16.401794 -5.251282,31.164001 -16.346741,32.972351c-11.095459,1.80838 -21.766052,-10.021942 -23.833435,-26.423706c-2.067444,-16.401794 5.251282,-31.164001 16.346741,-32.972351c9.092834,-1.481964 18.190063,6.248932 22.179993,18.848907" stroke-dashoffset="0" stroke-miterlimit="4" fill-rule="nonzero" fill="#cc813b"/>
  <path d="m570.083618,322.629913c-6.686951,14.721649 -20.18103,21.914276 -30.139893,16.065186c-9.958862,-5.849091 -12.611328,-22.524994 -5.924377,-37.246613c6.686951,-14.721649 20.181091,-21.914276 30.139954,-16.065186c8.161438,4.793396 11.624634,17.092529 8.443604,29.986694" id="path4381-0" stroke-dashoffset="0" stroke-miterlimit="4" fill-rule="nonzero" fill="#fce0c7"/>
  <path d="m157.905273,435.311096c0,-53.53186 -15.144287,-96.928131 -33.825653,-96.928131c-18.681404,0 -33.825653,43.396271 -33.825653,96.928131c0,0 0,0 0,0" id="path4529-7" stroke-dashoffset="0" stroke-miterlimit="4" fill-rule="nonzero" fill="#ddd177"/>
  <path d="m207.967224,435.311035c0,-50.982727 -15.144257,-92.312378 -33.825653,-92.312378c-18.681396,0 -33.825623,41.329651 -33.825623,92.312378c0,0 0,0 0,0" id="path4531-3" stroke-dashoffset="0" stroke-miterlimit="4" fill-rule="nonzero" fill="#cecea3"/>
  <path d="m256.676147,435.310974c0,-54.381592 -15.144226,-98.466675 -33.825623,-98.466675c-18.681396,0 -33.825653,44.085083 -33.825653,98.466675c0,0 0,0 0,0" id="path4533-4" stroke-dashoffset="0" stroke-miterlimit="4" fill-rule="nonzero" fill="#d89797"/>
  <path d="m304.032104,435.311035c0,-49.283325 -15.144287,-89.235321 -33.825684,-89.235321c-18.681396,0 -33.825623,39.951996 -33.825623,89.235321c0,0 0,0 0,0" id="path4535-0" stroke-dashoffset="0" stroke-miterlimit="4" fill-rule="nonzero" fill="#031044"/>
  <path id="path4537-2" d="m351.388,435.311035c0,-51.832397 -15.144287,-93.851013 -33.825684,-93.851013c-18.681396,0 -33.825623,42.018616 -33.825623,93.851013c0,0 0,0 0,0" stroke-dashoffset="0" stroke-miterlimit="4" fill-rule="nonzero" fill="#775073"/>
  <path d="m141.668945,321.459045c0,16.994263 -10.600983,30.770782 -23.677948,30.770782c-13.076996,0 -23.677979,-13.776581 -23.677979,-30.770782c0,-16.994293 10.600983,-30.770813 23.677979,-30.770813c10.716766,0 20.097412,9.354248 22.871124,22.806763" id="path4539-7" stroke-dashoffset="0" stroke-miterlimit="4" fill-rule="nonzero" fill="#bc9673"/>
  <path d="m190.377899,326.843933c0,14.869965 -9.086578,26.924438 -20.29541,26.924438c-11.208832,0 -20.29538,-12.054504 -20.29538,-26.924438c0,-14.869995 9.086548,-26.924469 20.29538,-26.924469c9.185822,0 17.226379,8.184967 19.603851,19.955902" id="path4541-7" stroke-dashoffset="0" stroke-miterlimit="4" fill-rule="nonzero" fill="#fce0c7"/>
  <path d="m246.505859,322.079102c-3.791504,15.998657 -15.638733,26.279602 -26.461426,22.963135c-10.822754,-3.316467 -16.522705,-18.974457 -12.73114,-34.973083c3.791504,-15.998657 15.638733,-26.279572 26.461487,-22.963135c8.869385,2.717896 14.545959,13.903168 13.84021,27.270996" id="path4543-2" stroke-dashoffset="0" stroke-miterlimit="4" fill-rule="nonzero" fill="#ddb694"/>
  <path d="m301.120728,325.108154c2.067383,16.401794 -5.251282,31.164001 -16.346741,32.972351c-11.095459,1.80835 -21.766052,-10.021973 -23.833435,-26.423737c-2.067383,-16.401794 5.251282,-31.163971 16.346741,-32.972351c9.092896,-1.481964 18.190063,6.248962 22.179993,18.848907" id="path4545-5" stroke-dashoffset="0" stroke-miterlimit="4" fill-rule="nonzero" fill="#e0a674"/>
  <path id="path4549-7" d="m350.124756,338.357544c-6.686951,14.721649 -20.181091,21.914276 -30.139954,16.065186c-9.958862,-5.84906 -12.611267,-22.524963 -5.924377,-37.246582c6.686951,-14.72168 20.181091,-21.914276 30.139954,-16.065216c8.161438,4.793427 11.624634,17.092529 8.443665,29.986694" stroke-dashoffset="0" stroke-miterlimit="4" fill-rule="nonzero" fill="#ffd4aa"/>
  <path d="m574.148743,461.002747c0,-53.53186 15.144287,-96.928101 33.825623,-96.928101c18.681396,0 33.825684,43.39624 33.825684,96.928101c0,0 0,0 0,0" id="path4337-5" stroke-dashoffset="0" stroke-miterlimit="4" fill-rule="nonzero" fill="#088985"/>
  <path d="m524.086792,461.002686c0,-50.982727 15.144226,-92.312378 33.825623,-92.312378c18.681396,0 33.825623,41.329651 33.825623,92.312378c0,0 0,0 0,0" id="path4339-9" stroke-dashoffset="0" stroke-miterlimit="4" fill-rule="nonzero" fill="#d35d5d"/>
  <path d="m475.377808,461.002625c0,-54.381592 15.144287,-98.466675 33.825684,-98.466675c18.681396,0 33.825623,44.085083 33.825623,98.466675c0,0 0,0 0,0" id="path4341-2" stroke-dashoffset="0" stroke-miterlimit="4" fill-rule="nonzero" fill="#87b500"/>
  <path d="m428.021912,461.002686c0,-49.283325 15.144226,-89.235291 33.825623,-89.235291c18.681396,0 33.825623,39.951965 33.825623,89.235291c0,0 0,0 0,0" id="path4343-0" stroke-dashoffset="0" stroke-miterlimit="4" fill-rule="nonzero" fill="#331e30"/>
  <path id="path4345-2" d="m380.666016,461.002747c0,-51.832458 15.144226,-93.851074 33.825623,-93.851074c18.681396,0 33.825623,42.018616 33.825623,93.851074c0,0 0,0 0,0" stroke-dashoffset="0" stroke-miterlimit="4" fill-rule="nonzero" fill="#738973"/>
  <path d="m590.385071,347.150696c0,16.994263 10.600952,30.770813 23.677917,30.770813c13.076965,0 23.677917,-13.776581 23.677917,-30.770813c0,-16.994263 -10.600952,-30.770813 -23.677917,-30.770813c-10.716736,0 -20.097412,9.354248 -22.871094,22.806763" id="path4347-2" stroke-dashoffset="0" stroke-miterlimit="4" fill-rule="nonzero" fill="#f2cfb0"/>
  <path d="m541.676086,352.535583c0,14.869995 9.086548,26.924469 20.29541,26.924469c11.208801,0 20.29541,-12.054504 20.29541,-26.924469c0,-14.869965 -9.086609,-26.924438 -20.29541,-26.924438c-9.185791,0 -17.226379,8.184967 -19.603821,19.955902" id="path4349-8" stroke-dashoffset="0" stroke-miterlimit="4" fill-rule="nonzero" fill="#fffbdb"/>
  <path d="m485.548096,347.770782c3.791504,15.998657 15.638733,26.279572 26.461487,22.963135c10.822754,-3.316467 16.522644,-18.974457 12.73114,-34.973083c-3.791565,-15.998657 -15.638794,-26.279602 -26.461487,-22.963135c-8.869446,2.717896 -14.546021,13.903137 -13.840271,27.270996" id="path4351-5" stroke-dashoffset="0" stroke-miterlimit="4" fill-rule="nonzero" fill="#f2cfb0"/>
  <path d="m430.933289,350.799805c-2.067383,16.401794 5.251282,31.164001 16.346741,32.972382c11.095398,1.80835 21.765991,-10.021973 23.833374,-26.423737c2.067383,-16.401794 -5.251221,-31.164001 -16.34668,-32.972351c-9.092896,-1.481964 -18.190063,6.248932 -22.180054,18.848907" id="path4353-2" stroke-dashoffset="0" stroke-miterlimit="4" fill-rule="nonzero" fill="#bc9673"/>
  <path d="m382.666016,344.458527c0,16.569397 9.086548,30.001526 20.295349,30.001526c11.208862,0 20.29541,-13.432159 20.29541,-30.001526c0,-16.569427 -9.086548,-30.001556 -20.29541,-30.001556c-9.185791,0 -17.226318,9.120392 -19.603821,22.236603" id="path4355-5" stroke-dashoffset="0" stroke-miterlimit="4" fill-rule="nonzero" fill="#f2efcb"/>
  <path id="path4505-5" d="m193.30632,480.851685c0,-52.427307 18.502045,-94.928162 41.325516,-94.928162c22.823456,0 41.325562,42.500854 41.325562,94.928162c0,0 0,0 0,0" stroke-dashoffset="0" stroke-miterlimit="4" fill-rule="nonzero" fill="#aaffff"/>
  <path id="path4507-9" d="m143.24408,480.851685c0,-49.878204 15.144226,-90.312439 33.825623,-90.312439c18.681396,0 33.825623,40.434235 33.825623,90.312439c0,0 0,0 0,0" stroke-dashoffset="0" stroke-miterlimit="4" fill-rule="nonzero" fill="#ff4300"/>
  <path id="path4509-1" d="m94.535103,481.851563c0,-53.829285 15.144279,-97.466644 33.825676,-97.466644c18.681396,0 33.825623,43.63736 33.825623,97.466644c0,0 0,0 0,0" stroke-dashoffset="0" stroke-miterlimit="4" fill-rule="nonzero" fill="#8e5163"/>
  <path id="path4511-7" d="m47.179199,480.851624c0,-48.178772 15.144291,-87.235291 33.825684,-87.235291c18.681335,0 33.82563,39.056519 33.82563,87.235291c0,0 0,0 0,0" stroke-dashoffset="0" stroke-miterlimit="4" fill-rule="nonzero" fill="#bbbc64"/>
  <path d="m-0.1767,480.851685c0,-50.727905 15.14429,-91.851105 33.825691,-91.851105c18.681328,0 33.825619,41.123199 33.825619,91.851105c0,0 0,0 0,0" id="path4513-2" stroke-dashoffset="0" stroke-miterlimit="4" fill-rule="nonzero" fill="#5100c4"/>
  <path id="path4515-5" d="m209.542358,368.999634c0,16.994263 10.600952,30.770813 23.677917,30.770813c13.076965,0 23.677979,-13.77655 23.677979,-30.770813c0,-16.994263 -10.601013,-30.770782 -23.677979,-30.770782c-10.716736,0 -20.097412,9.354248 -22.871155,22.806763" stroke-dashoffset="0" stroke-miterlimit="4" fill-rule="nonzero" fill="#ffd59e"/>
  <path id="path4517-3" d="m160.833374,374.384521c0,14.869995 9.086548,26.9245 20.29541,26.9245c11.208862,0 20.29541,-12.054504 20.29541,-26.9245c0,-14.869965 -9.086548,-26.924438 -20.29541,-26.924438c-9.185791,0 -17.226379,8.184967 -19.603821,19.955933" stroke-dashoffset="0" stroke-miterlimit="4" fill-rule="nonzero" fill="#cc813b"/>
  <path id="path4519-2" d="m104.705383,369.619751c3.791565,15.998657 15.638733,26.279541 26.461487,22.963135c10.822754,-3.316467 16.522644,-18.974487 12.73114,-34.973114c-3.791565,-15.998657 -15.638733,-26.279572 -26.461487,-22.963135c-8.869385,2.717896 -14.546021,13.903168 -13.84021,27.270996" stroke-dashoffset="0" stroke-miterlimit="4" fill-rule="nonzero" fill="#ffd4aa"/>
  <path id="path4521-2" d="m50.09058,372.648743c-2.06739,16.401794 5.251282,31.164001 16.346737,32.972351c11.09539,1.808411 21.765991,-10.021912 23.833435,-26.423706c2.06739,-16.401794 -5.251282,-31.163971 -16.346741,-32.972351c-9.092903,-1.481964 -18.190121,6.248962 -22.18005,18.848907" stroke-dashoffset="0" stroke-miterlimit="4" fill-rule="nonzero" fill="#e0a674"/>
  <path d="m7.08655,385.898193c6.686949,14.721619 20.181028,21.914246 30.139952,16.065186c9.958862,-5.849121 12.611267,-22.524963 5.924377,-37.246613c-6.687012,-14.72168 -20.181091,-21.914276 -30.13995,-16.065216c-8.16144,4.793427 -11.62464,17.09256 -8.443668,29.986694" id="path4525-8" stroke-dashoffset="0" stroke-miterlimit="4" fill-rule="nonzero" fill="#f2cfb0"/>
  <title>Layer 1</title>
  <path d="m452.630249,479.912262c0,-52.427307 15.144226,-94.928131 33.825623,-94.928131c18.681396,0 33.825684,42.500824 33.825684,94.928131c0,0 0,0 0,0" stroke-dashoffset="0" stroke-miterlimit="4" fill-rule="nonzero" fill="#1c3304" id="svg_14"/>
  <path d="m402.568298,479.912262c0,-49.878204 15.144226,-90.312439 33.825623,-90.312439c18.681396,0 33.825623,40.434235 33.825623,90.312439c0,0 0,0 0,0" stroke-dashoffset="0" stroke-miterlimit="4" fill-rule="nonzero" fill="#0b5c82" id="svg_15"/>
  <path d="m353.859314,479.91214c0,-53.277039 15.144287,-96.466705 33.825684,-96.466705c18.681396,0 33.825623,43.189667 33.825623,96.466705c0,0 0,0 0,0" stroke-dashoffset="0" stroke-miterlimit="4" fill-rule="nonzero" fill="#dbb448" id="svg_16"/>
  <path d="m306.503418,479.912201c0,-48.178772 15.144287,-87.235352 33.825684,-87.235352c18.681335,0 33.825623,39.05658 33.825623,87.235352c0,0 0,0 0,0" stroke-dashoffset="0" stroke-miterlimit="4" fill-rule="nonzero" fill="#5e3af2" id="svg_17"/>
  <path d="m259.147522,480.912231c0,-51.280151 15.144287,-92.851044 33.825684,-92.851044c18.681335,0 33.825623,41.570892 33.825623,92.851044c0,0 0,0 0,0" stroke-dashoffset="0" stroke-miterlimit="4" fill-rule="nonzero" fill="#03bc00" id="svg_18"/>
  <path d="m468.866577,368.060181c0,16.994263 10.600952,30.770813 23.677917,30.770813c13.076965,0 23.677979,-13.77655 23.677979,-30.770813c0,-16.994263 -10.601013,-30.770782 -23.677979,-30.770782c-10.716736,0 -20.097412,9.354248 -22.871155,22.806763" stroke-dashoffset="0" stroke-miterlimit="4" fill-rule="nonzero" fill="#47301c" id="svg_19"/>
  <path d="m420.157593,373.445068c0,14.869995 9.086548,26.9245 20.29541,26.9245c11.208862,0 20.29541,-12.054504 20.29541,-26.9245c0,-14.869965 -9.086548,-26.924438 -20.29541,-26.924438c-9.185791,0 -17.226379,8.184967 -19.603821,19.955933" stroke-dashoffset="0" stroke-miterlimit="4" fill-rule="nonzero" fill="#e0a674" id="svg_20"/>
  <path d="m364.029602,368.680298c3.791565,15.998657 15.638733,26.279541 26.461487,22.963135c10.822754,-3.316467 16.522644,-18.974487 12.73114,-34.973114c-3.791565,-15.998657 -15.638733,-26.279572 -26.461487,-22.963135c-8.869385,2.717896 -14.546021,13.903168 -13.84021,27.270996" stroke-dashoffset="0" stroke-miterlimit="4" fill-rule="nonzero" fill="#f2cfb0" id="svg_21"/>
  <path d="m309.414795,371.70929c-2.067383,16.401794 5.251282,31.164001 16.346741,32.972351c11.095398,1.808411 21.765991,-10.021912 23.833435,-26.423706c2.067383,-16.401794 -5.251282,-31.163971 -16.346741,-32.972351c-9.092896,-1.481964 -18.190125,6.248962 -22.180054,18.848907" stroke-dashoffset="0" stroke-miterlimit="4" fill-rule="nonzero" fill="#fffbdb" id="svg_22"/>
  <path d="m267.410767,385.95874c6.686951,14.721619 20.18103,21.914246 30.139954,16.065186c9.958862,-5.849121 12.611267,-22.524963 5.924377,-37.246613c-6.687012,-14.72168 -20.181091,-21.914276 -30.139954,-16.065216c-8.161438,4.793427 -11.624634,17.09256 -8.443665,29.986694" stroke-dashoffset="0" stroke-miterlimit="4" fill-rule="nonzero" fill="#f2cfb0" id="svg_24"/>
  <path d="m576.851501,479.912109c0,-54.381592 15.144287,-98.466675 33.825684,-98.466675c18.681396,0 33.825623,44.085083 33.825623,98.466675c0,0 0,0 0,0" stroke-dashoffset="0" stroke-miterlimit="4" fill-rule="nonzero" fill="#8db8bc" id="svg_25"/>
  <path d="m514.495483,479.91217c0,-49.283325 18.502136,-89.235291 41.325562,-89.235291c22.823425,0 41.3255,39.951965 41.3255,89.235291c0,0 0,0 0,0" stroke-dashoffset="0" stroke-miterlimit="4" fill-rule="nonzero" fill="#7c3860" id="svg_26"/>
  <path d="m587.02179,366.680298c3.791565,15.998657 15.638733,26.279541 26.461487,22.963135c10.822754,-3.316467 16.522644,-18.974487 12.73114,-34.973114c-3.791565,-15.998657 -15.638733,-26.279572 -26.461487,-22.963135c-8.869385,2.717896 -14.546021,13.903168 -13.84021,27.270996" stroke-dashoffset="0" stroke-miterlimit="4" fill-rule="nonzero" fill="#cc813b" id="svg_27"/>
  <path d="m532.406982,369.70929c-2.067383,16.401794 5.251282,31.164001 16.346741,32.972351c11.095398,1.808411 21.765991,-10.021912 23.833435,-26.423706c2.067383,-16.401794 -5.251282,-31.163971 -16.346741,-32.972351c-9.092896,-1.481964 -18.190125,6.248962 -22.180054,18.848907" stroke-dashoffset="0" stroke-miterlimit="4" fill-rule="nonzero" fill="#ffd4aa" id="svg_28"/>
 </g>
</svg>